<?xml version="1.0" encoding="utf-8"?>
<!-- Generator: Adobe Illustrator 16.0.3, SVG Export Plug-In . SVG Version: 6.00 Build 0)  -->
<!DOCTYPE svg PUBLIC "-//W3C//DTD SVG 1.1//EN" "http://www.w3.org/Graphics/SVG/1.1/DTD/svg11.dtd">
<svg xmlns="http://www.w3.org/2000/svg" viewBox="0 0 400 220" xml:space="preserve">
<g id="background">
	<polygon fill="#E0F0E8" points="318,188 86,188.1 86,44 318,44"/>
</g>
<g id="axes">
	<line stroke="#989C98" x1="282" y1="187" x2="282" y2="185"/>
	<line stroke="#989C98" stroke-dasharray="3.9677,3.9677" x1="282" y1="181" x2="282" y2="64"/>
	<line stroke="#989C98" x1="282" y1="62" x2="282" y2="60"/>
	<line stroke="#989C98" x1="86" y1="60" x2="88" y2="60"/>
	<line stroke="#989C98" stroke-dasharray="3.9184,3.9184" x1="91.9" y1="60" x2="278" y2="60"/>
	<line stroke="#989C98" x1="280" y1="60" x2="282" y2="60"/>
	<line stroke="#989C98" x1="86" y1="170" x2="88" y2="170"/>
	<line stroke="#989C98" stroke-dasharray="3.7614,3.7614" x1="91.8" y1="170" x2="127.5" y2="170"/>
	<line stroke="#989C98" x1="129.4" y1="170" x2="131.4" y2="170"/>
	<line stroke="#989C98" x1="86" y1="170" x2="82" y2="170"/>
	<line stroke="#989C98" x1="142" y1="188" x2="142" y2="192"/>
	<line stroke="#989C98" x1="86" y1="60" x2="82" y2="60"/>
	<line stroke="#989C98" x1="282" y1="187.7" x2="282" y2="191.7"/>
	<polyline fill="none" stroke="#989C98" points="86,44 86,188 318,188"/>
</g>
<g id="line">
	<polyline fill="none" stroke="#404040" points="142,170 282,60 318,60"/>
</g>
<g id="default">
	<line stroke="#989C98" x1="142" y1="170" x2="140.5" y2="170"/>	
	<line stroke="#989C98" stroke-dasharray="2.3333,2.3333" x1="138.2" y1="170" x2="134.7" y2="170"/>
	<polyline fill="none" stroke="#989C98" points="133.5,170 132,170 132,171.5"/>
	<line stroke="#989C98" stroke-dasharray="2.8967,2.8967" x1="132" y1="174.4" x2="132" y2="184.5"/>
	<line stroke="#989C98" x1="132" y1="186" x2="132" y2="187.5"/>
	<polyline fill="none" stroke="#404040" points="85.5,188 142,188 142,170"/>
</g>
<g id="hysteresis">
	<line stroke="#989C98" x1="142" y1="170" x2="142" y2="171.5"/>
	<line stroke="#989C98" stroke-dasharray="3,3" x1="142" y1="174.5" x2="142" y2="185"/>
	<line stroke="#989C98" x1="142" y1="186.5" x2="142" y2="188"/>
	<polyline fill="none" stroke="#404040" points="142,170 132,170 132,188 85.5,188"/>
</g>
<g id="icon-y">
	<line stroke="#006C58" stroke-width="1.0366" x1="39.4" y1="10.7" x2="39.1" y2="11.4"/>
	
	<line stroke="#006C58" stroke-width="1.0366" stroke-dasharray="1.5168,1.5168" x1="38.5" y1="12.8" x2="35.3" y2="20.5"/>
	<line stroke="#006C58" stroke-width="1.0366" x1="35" y1="21.2" x2="34.7" y2="21.9"/>
	<line stroke="#006C58" stroke-width="1.0366" x1="40.3" y1="10.7" x2="40.1" y2="11.4"/>
	
	<line stroke="#006C58" stroke-width="1.0366" stroke-dasharray="1.4156,1.4156" x1="39.8" y1="12.8" x2="38.3" y2="20.4"/>
	<line stroke="#006C58" stroke-width="1.0366" x1="38.1" y1="21.1" x2="38" y2="21.9"/>
	<line stroke="#006C58" stroke-width="1.0366" x1="41.3" y1="10.7" x2="41.3" y2="11.5"/>
	
	<line stroke="#006C58" stroke-width="1.0366" stroke-dasharray="1.3855,1.3855" x1="41.3" y1="12.8" x2="41.3" y2="20.5"/>
	<line stroke="#006C58" stroke-width="1.0366" x1="41.3" y1="21.2" x2="41.3" y2="21.9"/>
	<line stroke="#006C58" stroke-width="1.0366" x1="42.3" y1="10.7" x2="42.5" y2="11.4"/>
	
	<line stroke="#006C58" stroke-width="1.0366" stroke-dasharray="1.4212,1.4212" x1="42.8" y1="12.8" x2="44.5" y2="20.4"/>
	<line stroke="#006C58" stroke-width="1.0366" x1="44.6" y1="21.1" x2="44.8" y2="21.9"/>
	<line stroke="#006C58" stroke-width="1.0366" x1="43.2" y1="10.7" x2="43.5" y2="11.4"/>
	
	<line stroke="#006C58" stroke-width="1.0366" stroke-dasharray="1.5226,1.5226" x1="44.1" y1="12.8" x2="47.4" y2="20.5"/>
	<line stroke="#006C58" stroke-width="1.0366" x1="47.7" y1="21.2" x2="48" y2="21.9"/>
	<path fill-rule="evenodd" clip-rule="evenodd" fill="none" stroke="#006C58" stroke-width="1.555"  d="
		M43.8,6v2.3c0,0.2-0.1,0.3-0.3,0.3h-4.5c-0.2,0-0.3-0.1-0.3-0.3V6"/>
	<path id="Druppel_3_" fill="#006C58" d="M32.9,6.4c1.5,1.5,1.6,3.1,1.6,3.1c0,0.9-0.7,1.6-1.6,1.6c-0.9,0-1.6-0.7-1.6-1.6
		C31.3,9.6,31.3,8,32.9,6.4z"/>
	<path id="Druppel_2_" fill="#006C58" d="M36.1,9c1,1,1,2,1,2c0,0.6-0.5,1-1,1c-0.6,0-1-0.5-1-1C35.1,11,35.1,10,36.1,9z"/>
	<path id="Druppel_1_" fill="#006C58" d="M34.2,11.6c0.7,0.7,0.7,1.4,0.7,1.4c0,0.4-0.3,0.7-0.7,0.7c-0.4,0-0.7-0.3-0.7-0.7
		C33.5,13.1,33.5,12.3,34.2,11.6z"/>
</g>
<g id="icon-x">
	<path display="none" fill="#FFFFFF" d="M322.5,205.9v-9.1c0-0.3,0.2-0.5,0.5-0.5l0,0c0.3,0,0.5,0.2,0.5,0.5v9.1"/>
	<ellipse fill="#007C60" cx="323" cy="207" rx="1.4" ry="1.4"/>
	
	<path fill="none" stroke="#007C60" stroke-width="0.9007" stroke-linecap="round" stroke-linejoin="round"  d="
	M323.1,210c-1.6,0-2.9-1.3-2.9-3c0-1,0.5-1.9,1.2-2.4"/>

	<path fill="none" stroke="#007C60" stroke-width="0.9007" stroke-linecap="round" stroke-linejoin="round"  d="
	M324.7,204.6c0.8,0.5,1.3,1.4,1.3,2.5c0,1.6-1.3,3-2.9,3"/>

	<path fill="none" stroke="#007C60" stroke-width="0.9007" stroke-linecap="round" stroke-linejoin="round"  d="
	M321.4,204.6l0-7.9c0-0.9,0.7-1.6,1.6-1.6l0,0c0.9,0,1.6,0.7,1.6,1.6v7.8"/>
</g>
<g id="unit">
	<text transform="matrix(1 0 0 1 325.5996 210)" font-family="'LucidaConsole'" font-size="16">°C</text>
</g>
<g id="max">
	<text transform="matrix(1 0 0 1 4 66)" font-family="'LucidaConsole'" font-size="16">30m00s</text>
</g>
<g id="min">
	<text transform="matrix(1 0 0 1 4 176)" font-family="'LucidaConsole'" font-size="16">30m00s</text>
</g>
<g id="setpoint">
	<text transform="matrix(1 0 0 1 118 210)" font-family="'LucidaConsole'" font-size="16">27,2</text>
</g>
<g id="band">
	<text transform="matrix(1 0 0 1 258 210)" font-family="'LucidaConsole'" font-size="16">+5,0</text>
</g>
<g id="value-y">
	<text transform="matrix(1 0 0 1 324 132)" font-family="'LucidaConsole'" font-size="16">30m00s</text>
</g>
<g id="value-x">
	<text transform="matrix(1 0 0 1 164 40)" font-family="'LucidaConsole'" font-size="16">32,2</text>
</g>
</svg>
