<?xml version="1.0" encoding="utf-8"?>
<!-- Generator: Adobe Illustrator 16.0.3, SVG Export Plug-In . SVG Version: 6.00 Build 0)  -->
<!DOCTYPE svg PUBLIC "-//W3C//DTD SVG 1.1//EN" "http://www.w3.org/Graphics/SVG/1.1/DTD/svg11.dtd">
<svg xmlns="http://www.w3.org/2000/svg" x="0px" y="0px" width="60px" height="45px">
<g>
	<g id="calendar-background">
		<path fill="#E0F0E8" d="M32.357,9.94v4.998h-4.248V9.94H9.889v4.998H5.641V9.94H1.981v27.309h34.037V9.94H32.357z"/>
		<rect x="6.438" y="6.751" fill="#E0F0E8" width="2.654" height="6.376"/>
		<rect x="28.905" y="6.827" fill="#E0F0E8" width="2.658" height="6.376"/>
		<rect x="28.905" y="6.827" fill="#E0F0E8" width="2.658" height="6.376"/>
	</g>
</g>
<g id="calendar">
	<line fill="#b5b3b3" stroke="#b5b3b3" stroke-width="0.6398" stroke-miterlimit="10" x1="3.005" y1="23.917" x2="34.994" y2="23.917"/>

	<line fill="#b5b3b3" stroke="#b5b3b3" stroke-width="0.6398" stroke-miterlimit="10" x1="3.646" y1="27.116" x2="35.635" y2="27.116"/>

	<line fill="#b5b3b3" stroke="#b5b3b3" stroke-width="0.6398" stroke-miterlimit="10" x1="3.005" y1="30.317" x2="34.994" y2="30.317"/>

	<line fill="#b5b3b3" stroke="#b5b3b3" stroke-width="0.6398" stroke-miterlimit="10" x1="3.005" y1="20.72" x2="34.994" y2="20.72"/>

	<line fill="#b5b3b3" stroke="#b5b3b3" stroke-width="0.6398" stroke-miterlimit="10" x1="9.404" y1="16.882" x2="9.404" y2="34.797"/>

	<line fill="#b5b3b3" stroke="#b5b3b3" stroke-width="0.6398" stroke-miterlimit="10" x1="13.242" y1="16.241" x2="13.242" y2="34.157"/>

	<line fill="#b5b3b3" stroke="#b5b3b3" stroke-width="0.6398" stroke-miterlimit="10" x1="17.081" y1="16.882" x2="17.081" y2="34.797"/>

	<line fill="#b5b3b3" stroke="#b5b3b3" stroke-width="0.6398" stroke-miterlimit="10" x1="20.92" y1="16.882" x2="20.92" y2="34.797"/>

	<line fill="#b5b3b3" stroke="#b5b3b3" stroke-width="0.6398" stroke-miterlimit="10" x1="24.76" y1="16.882" x2="24.76" y2="34.797"/>

	<line fill="#b5b3b3" stroke="#b5b3b3" stroke-width="0.6398" stroke-miterlimit="10" x1="28.598" y1="16.882" x2="28.598" y2="34.797"/>
	<rect x="20.92" y="27.116" fill="#b5b3b3" width="3.84" height="3.201"/>

	<path fill="#b5b3b3" d="M32.357,9.94v4.998h-4.248V9.94H9.889v4.998H5.641V9.94H1.981v27.309h34.037V9.94H32.357z M32.278,33.187
		H5.721v-15.25h26.557V33.187z"/>
	<rect x="6.438" y="6.751" fill="#b5b3b3" width="2.654" height="6.376"/>
	<rect x="28.905" y="6.827" fill="#b5b3b3" width="2.658" height="6.376"/>
	<rect x="28.905" y="6.827" fill="#b5b3b3" width="2.658" height="6.376"/>
</g>
</svg>
