<?xml version="1.0" encoding="utf-8"?>
<!-- Generator: Adobe Illustrator 16.0.3, SVG Export Plug-In . SVG Version: 6.00 Build 0)  -->
<!DOCTYPE svg PUBLIC "-//W3C//DTD SVG 1.1//EN" "http://www.w3.org/Graphics/SVG/1.1/DTD/svg11.dtd">
<svg xmlns="http://www.w3.org/2000/svg" x="0px" y="0px" width="60px" height="45px">
<g id="thermo">
	<path fill="#007C60" d="M6.561,28.977V11.174c0-0.557,0.445-1.007,0.984-1.007l0,0c0.542,0,0.984,0.45,0.984,1.007v17.803H6.561z"
		/>
	<path fill="#007C60" d="M7.666,28.398c1.496,0,2.708,1.231,2.708,2.762c0,1.524-1.213,2.764-2.708,2.764
		c-1.496,0-2.707-1.239-2.707-2.764C4.959,29.63,6.17,28.398,7.666,28.398z"/>
	
		<path fill="none" stroke="#007C60" stroke-width="1.7607" stroke-linecap="round" stroke-linejoin="round" stroke-miterlimit="10" d="
		M10.718,26.373c1.633,1.019,2.719,2.832,2.719,4.898c0,3.187-2.583,5.771-5.771,5.771s-5.771-2.584-5.771-5.771
		c0-1.967,0.984-3.704,2.487-4.746"/>
	
		<path fill="none" stroke="#007C60" stroke-width="1.7607" stroke-linecap="round" stroke-linejoin="round" stroke-miterlimit="10" d="
		M4.386,26.408V11.163c0-1.779,1.421-3.228,3.165-3.228l0,0c1.746,0,3.164,1.448,3.164,3.228v15.245"/>
</g>
<g id="unit">
	<text transform="matrix(1 0 0 1 13 24)" font-family="'LucidaConsole'" font-size="22">°F</text>
</g>
</svg>
