<?xml version="1.0" encoding="utf-8"?>
<!-- Generator: Adobe Illustrator 16.0.3, SVG Export Plug-In . SVG Version: 6.00 Build 0)  -->
<!DOCTYPE svg PUBLIC "-//W3C//DTD SVG 1.1//EN" "http://www.w3.org/Graphics/SVG/1.1/DTD/svg11.dtd">
<svg version="1.1" id="Laag_3" xmlns="http://www.w3.org/2000/svg" xmlns:xlink="http://www.w3.org/1999/xlink" x="0px" y="0px"
	 width="60px" height="45px" viewBox="0 0 60 45" enable-background="new 0 0 60 45" xml:space="preserve">
<g id="Laag_4">
	<g>
		<path fill-rule="evenodd" clip-rule="evenodd" fill="#007C60" d="M13.871,26.715c-0.43-0.411-0.816-0.779-1.276-1.218
			c-0.934,0.742-1.863,1.486-2.798,2.225c-0.516,0.407-1.021,0.833-1.568,1.194c-1.288,0.851-2.746,0.753-3.993-0.226
			c-2.147-1.683-2.889-5.274-1.601-7.75c1.294-2.489,4.003-3.536,6.903-2.58c1.012,0.333,1.954,0.868,2.935,1.313
			c0.372-0.393,0.761-0.804,1.241-1.313c-0.573-0.686-1.156-1.388-1.745-2.084c-0.578-0.685-1.195-1.338-1.742-2.048
			c-0.946-1.229-0.996-2.584-0.168-3.847c1.303-1.986,3.274-2.835,5.601-2.771c2.149,0.058,3.761,1.13,4.751,3.022
			c0.943,1.798,0.707,3.652-0.02,5.465c-0.285,0.715-0.655,1.396-0.984,2.085c0.463,0.431,0.898,0.836,1.415,1.317
			c0.345-0.264,0.722-0.532,1.076-0.83c0.98-0.83,1.923-1.708,2.934-2.5c1.194-0.937,2.535-0.954,3.767-0.157
			c1.997,1.292,2.854,3.263,2.798,5.588c-0.051,2.185-1.138,3.812-3.074,4.804c-1.781,0.914-3.602,0.668-5.385-0.029
			c-0.693-0.271-1.349-0.634-2.037-0.965c-0.382,0.439-0.771,0.885-1.258,1.443c0.343,0.457,0.79,1.073,1.257,1.676
			c0.676,0.874,1.408,1.708,2.042,2.61c0.854,1.212,0.789,2.504-0.018,3.693c-2.011,2.966-7.85,3.988-10.265-0.406
			c-0.974-1.77-0.755-3.583-0.003-5.357C12.99,28.275,13.444,27.532,13.871,26.715z M16.675,18.18
			c-2.347,0.014-4.282,1.948-4.287,4.283c-0.004,2.39,1.938,4.334,4.33,4.334c2.369-0.002,4.317-1.988,4.286-4.375
			C20.975,20.084,19.018,18.167,16.675,18.18z"/>
		<path fill-rule="evenodd" clip-rule="evenodd" fill="#007C60" d="M16.662,24.93c-1.344-0.023-2.444-1.166-2.407-2.499
			c0.037-1.347,1.188-2.436,2.521-2.384c1.313,0.05,2.37,1.147,2.362,2.452C19.131,23.841,17.998,24.952,16.662,24.93z"/>
		
			<circle fill-rule="evenodd" clip-rule="evenodd" fill="none" stroke="#007C60" stroke-width="0.7872" stroke-miterlimit="10" cx="16.663" cy="22.487" r="4.923"/>
	</g>
</g>
</svg>
