<?xml version="1.0" encoding="utf-8"?>
<!DOCTYPE svg PUBLIC "-//W3C//DTD SVG 1.1//EN" "http://www.w3.org/Graphics/SVG/1.1/DTD/svg11.dtd">
<svg version="1.1" xmlns="http://www.w3.org/2000/svg" viewBox="0 0 188 270" xml:space="preserve">
<g id="background" display="none">
	<path fill="#FFFFFF" d="M0,0l0.1,270H188V0H0z M112,238H80V30h32V238z"/>
</g>
<g id="fill">
	<rect x="82.5" y="37" fill="#009FE3" width="23" height="196"/>
</g>
<g id="lining">
	<path fill="#18F8F8" d="M76,32v206h36V32H76z M105.6,232.9H82.4V37.1h23.2V232.9z"/>
</g>
<g id="rvgauge">
	<path fill="#007C60" d="M107.9,35.1v199.9H80.1V35.1H107.9 M115,28H73v214h42V28L115,28z"/>
</g>
<g id="name">
	<path id="Druppel_3_" fill="#007C60" d="M90.1,2.1c4.6,4.5,4.7,9.3,4.7,9.3c0,2.6-2.1,4.7-4.7,4.7c-2.6,0-4.7-2.1-4.7-4.7
		C85.4,11.5,85.6,6.7,90.1,2.1z"/>
	<path id="Druppel_2_" fill="#007C60" d="M99.6,9.9c2.9,2.9,3,5.9,3,5.9c0,1.7-1.3,3-3,3c-1.7,0-3-1.3-3-3
		C96.6,15.8,96.7,12.8,99.6,9.9z"/>
	<path id="Druppel_1_" fill="#007C60" d="M94.2,17.6c2.1,2.1,2.1,4.2,2.1,4.2c0,1.2-1,2.1-2.1,2.1C93,24,92,23,92,21.9
		C92,21.9,92.1,19.7,94.2,17.6z"/>
</g>
<g id="min">
	<line fill="none" stroke="#36A9E1" stroke-width="2" x1="70" y1="233" x2="118" y2="233"/>
	<text transform="matrix(1 0 0 1 124 241)" font-family="'ArialMT'" font-size="24">20%</text>
</g>
<g id="max">
	<line fill="none" stroke="#E30613" stroke-width="2" x1="70" y1="233" x2="118" y2="233"/>
	<text transform="matrix(1 0 0 1 124 241)" font-family="'ArialMT'" font-size="24">100%</text>
</g>
<g id="value">
	<text transform="matrix(1 0 0 1 72 266)" font-family="'ArialMT'" font-size="24">79%</text>
</g>
<g id="setpoint">
	<polygon fill="#007C60" points="53.4,230.8 63.1,230.8 63.1,226.9 73.4,232.8 63.1,238.8 63.1,234.7 53.4,234.7 	"/>
	<text transform="matrix(1 0 0 1 7 239)" font-family="'ArialMT'" font-size="24">70%</text>
</g>
</svg>
