<?xml version="1.0" encoding="utf-8"?>
<!DOCTYPE svg PUBLIC "-//W3C//DTD SVG 1.1//EN" "http://www.w3.org/Graphics/SVG/1.1/DTD/svg11.dtd">
<svg version="1.1" xmlns="http://www.w3.org/2000/svg" viewBox="94 0 172 272">
<g id="fill">
	<rect x="156.271" y="35.254" fill="#009FE3" width="62.459" height="223.645"/>
</g>
<g id="background">
	<path fill="#FFFFFF" d="M94.167,0L94,272h172L265.834,0H94.167z M187,263.941c-19.997,0-36.267-16.271-36.267-36.269
		c0-12.903,6.951-24.942,18.133-31.421l2.016-1.156V46.552c0-8.885,7.232-16.119,16.118-16.119c8.885,0,16.118,7.233,16.118,16.119
		v148.542l2.015,1.157c11.184,6.479,18.135,18.519,18.135,31.422C223.268,247.671,206.996,263.941,187,263.941z"/>
</g>
<g id="thermometer">
	<path fill="#007C60" d="M187.5,33.456c7.221,0,13.096,5.875,13.096,13.096v146.216v4.065l3.521,2.036
		c10.257,5.936,16.628,16.972,16.628,28.804c0,18.331-14.914,33.244-33.244,33.244c-18.331,0-33.245-14.913-33.245-33.244
		c0-11.832,6.372-22.868,16.628-28.804l3.52-2.036v-4.065V46.552C174.404,39.331,180.279,33.456,187.5,33.456 M187.5,26.404
		c-11.122,0-20.148,9.016-20.148,20.148v146.216c-12.049,6.971-20.148,19.996-20.148,34.905c0,22.254,18.043,40.298,40.296,40.298
		c22.254,0,40.297-18.044,40.297-40.298c0-14.909-8.1-27.937-20.148-34.905V46.552C207.648,35.42,198.621,26.404,187.5,26.404
		L187.5,26.404z"/>
</g>
<g id="lining">
	<path fill="#18F8F8" d="M204.111,198.872l-3.516-2.034V46.552c0-7.223-5.873-13.096-13.097-13.096s-13.096,5.873-13.096,13.096
		v150.286l-3.516,2.035c-10.265,5.934-16.632,16.964-16.632,28.801c0,18.335,14.91,33.244,33.245,33.244
		s33.244-14.909,33.244-33.244C220.744,215.837,214.377,204.807,204.111,198.872z M187.5,258.904
		c-17.217,0-31.229-14.014-31.229-31.23c0-11.111,5.984-21.488,15.625-27.059l4.523-2.619V46.552
		c0-6.115,4.967-11.082,11.082-11.082s11.082,4.967,11.082,11.082v151.444l4.522,2.619c9.642,5.57,15.625,15.947,15.625,27.059
		C218.729,244.891,204.717,258.904,187.5,258.904z"/>
</g>
<g id="value">
	<text transform="matrix(1 0 0 1 166 236)" font-family="'ArialMT'" font-size="24">21.5</text>
</g>
<g id="min">
	<line fill="none" stroke="#36A9E1" stroke-width="2" x1="163.5" y1="187" x2="211.5" y2="187"/>
	<text transform="matrix(1 0 0 1 217.5 195)" font-family="'ArialMT'" font-size="24">16.8</text>
</g>
<g id="max">
	<line fill="none" stroke="#E30613" stroke-width="2" x1="163.5" y1="56" x2="211.5" y2="56"/>
	<text transform="matrix(1 0 0 1 217.5 64)" font-family="'ArialMT'" font-size="24">30.6</text>
</g>
<g id="setpoint">
	<polygon fill="#007C60" points="156.91,264.891 156.91,260.859 147.2,260.859 147.2,256.859 156.91,256.859 156.91,252.83 
		167.35,258.859 	"/>
	<text transform="matrix(1 0 0 1 100.5 266)" font-family="'ArialMT'" font-size="24">   1.3</text>
</g>
<g id="name">
	<text transform="matrix(1 0 0 1 173.5 22)" font-family="'ArialMT'" font-size="24">°C</text>
</g>
</svg>
